<svg width="135" height="24" viewBox="0 0 135 24" fill="none" xmlns="http://www.w3.org/2000/svg">
<g clip-path="url(#clip0)">
<path d="M48.8466 13.2064V10.5821C48.8466 6.30695 51.1323 4.02124 55.8307 4.02124C60.6561 4.02124 62.7725 6.2223 62.7725 10.5821V13.2064C62.7725 17.4392 60.4868 19.7673 55.8307 19.7673C50.963 19.8096 48.8466 17.6085 48.8466 13.2064ZM59.6826 10.5821C59.6826 8.0424 58.836 6.94188 55.8731 6.94188C52.9101 6.94188 52.0212 8.0424 52.0212 10.5821V13.2064C52.0212 15.7461 52.8678 16.8466 55.8731 16.8466C58.836 16.8466 59.6826 15.7884 59.6826 13.2064V10.5821Z" fill="#1239B8"/>
<path d="M68.91 18.074C68.91 19.1745 68.6561 19.4285 67.5555 19.4285H67.1746C66.074 19.4285 65.8201 19.1745 65.8201 18.074V9.90469C65.8201 5.96818 68.0635 3.97876 72.4656 3.97876C77.0793 3.97876 79.0687 5.96818 79.0687 9.90469V18.074C79.0687 19.1745 78.8148 19.4285 77.7143 19.4285H77.3333C76.2328 19.4285 75.9788 19.1745 75.9788 18.074V9.90469C75.9788 7.83061 75.2169 6.94172 72.5079 6.94172C69.7989 6.94172 68.9947 7.87294 68.9947 9.90469V18.074H68.91Z" fill="#1239B8"/>
<path d="M95.1534 13.5026C95.1534 17.6931 92.9947 19.7248 88.6772 19.7248C84.1481 19.7248 82.2433 17.5237 82.2433 13.5026V10.5396C82.2433 6.47613 84.0211 4.27507 88.5079 4.27507C91.0476 4.27507 92.6984 5.0793 93.4603 6.73009V1.31211C93.4603 0.719513 93.6296 0.592529 94.1799 0.592529H94.3492C94.9418 0.592529 95.0687 0.761841 95.0687 1.31211V13.5026H95.1534ZM83.8941 13.5026C83.8941 16.7618 85.037 18.2433 88.7195 18.2433C92.3598 18.2433 93.5449 16.7618 93.5449 13.5026V10.4973C93.5449 7.23803 92.4021 5.75655 88.7195 5.75655C85.0793 5.75655 83.8941 7.23803 83.8941 10.4973V13.5026Z" fill="#017EFA"/>
<path d="M111.323 19.0053C111.323 19.5979 111.153 19.7249 110.603 19.7249H110.434C109.841 19.7249 109.714 19.5556 109.714 19.0053V17.3122C108.952 18.9207 107.259 19.7672 104.762 19.7672C100.275 19.7672 98.4974 17.5238 98.4974 13.5027V10.4974C98.4974 6.43388 100.317 4.27515 104.931 4.27515C109.206 4.27515 111.407 6.34922 111.407 10.4974V19.0053H111.323ZM100.021 13.5027C100.021 16.7619 101.164 18.2434 104.847 18.2434C108.529 18.2434 109.672 16.7619 109.672 13.5027V10.4974C109.672 7.23811 108.529 5.75663 104.847 5.75663C101.164 5.75663 100.021 7.23811 100.021 10.4974V13.5027Z" fill="#017EFA"/>
<path d="M113.862 5.3756C113.862 4.99465 113.947 4.86766 114.413 4.78301L116.36 4.57137L116.656 1.14279C116.741 0.677185 116.868 0.592529 117.249 0.592529H117.418C117.884 0.592529 117.968 0.761841 117.968 1.14279V4.57137H123.429C124.021 4.57137 124.148 4.74068 124.148 5.29094V5.41793C124.148 5.92586 124.021 6.1375 123.429 6.1375H117.968V14.5608C117.968 17.2698 119.069 18.2856 121.101 18.2856C122.159 18.2856 123.09 18.1587 123.979 17.9047C124.444 17.7354 124.698 17.947 124.698 18.4973V18.6243C124.698 19.1322 124.529 19.3438 123.979 19.4708C123.132 19.7248 122.201 19.8518 121.143 19.8518C117.926 19.8518 116.36 18.074 116.36 14.6031V6.05285H114.413C114.032 6.05285 113.862 5.88353 113.862 5.50258V5.3756Z" fill="#017EFA"/>
<path d="M130.794 4.78311C130.794 4.95242 130.751 4.99475 130.582 4.99475H129.905V7.11115C129.905 7.32279 129.862 7.36512 129.651 7.36512H129.566C129.355 7.36512 129.312 7.32279 129.312 7.11115V4.99475H128.635C128.466 4.99475 128.423 4.95242 128.423 4.78311V4.69846C128.423 4.52914 128.466 4.48682 128.635 4.48682H130.582C130.751 4.48682 130.794 4.52914 130.794 4.69846V4.78311ZM134.392 7.11115C134.392 7.32279 134.349 7.36512 134.138 7.36512H134.053C133.841 7.36512 133.799 7.32279 133.799 7.11115V4.99475L133.206 7.06883C133.164 7.28047 133.079 7.36512 132.825 7.36512C132.656 7.36512 132.529 7.28047 132.444 7.06883L131.852 4.99475V7.11115C131.852 7.32279 131.81 7.36512 131.598 7.36512H131.513C131.302 7.36512 131.259 7.32279 131.259 7.11115V4.86777C131.259 4.6138 131.386 4.48682 131.64 4.48682H131.894C132.148 4.48682 132.318 4.65613 132.402 4.95242L132.825 6.60322L133.291 4.86777C133.333 4.57147 133.503 4.48682 133.841 4.48682H133.968C134.222 4.48682 134.349 4.6138 134.349 4.86777V7.11115H134.392Z" fill="#017EFA"/>
<path d="M0 7.83057V16.1692L10.1587 11.9787L0 7.83057Z" fill="#017EFA"/>
<path d="M10.1587 11.9788L19.1323 8.33862V0L0 7.83069L10.1587 11.9788Z" fill="#1239B8"/>
<path d="M0 16.1692L19.1323 23.9999V15.6613L10.1587 11.9788L0 16.1692Z" fill="#0BBBEF"/>
<path d="M30.0106 11.9787L40.1693 16.1692V7.83057L30.0106 11.9787Z" fill="#017EFA"/>
<path d="M40.1692 7.83069L20.9946 0V8.33862L30.0105 11.9788L40.1692 7.83069Z" fill="#0BBBEF"/>
<path d="M20.9946 15.6613V23.9999L40.1692 16.1692L30.0105 11.9788L20.9946 15.6613Z" fill="#1239B8"/>
</g>
<defs>
<clipPath id="clip0">
<rect width="134.392" height="24" fill="white"/>
</clipPath>
</defs>
</svg>
